<?xml version="1.0" encoding="UTF-8"?><svg id="Layer_1" xmlns="http://www.w3.org/2000/svg" width="1000" height="350" viewBox="0 0 1000 350"><defs><style>.cls-1{fill:#231f20;}.cls-2{fill:#4c9c2e;}</style></defs><path class="cls-2" d="M160.99,172.9c0-33.23,16.22-61.98,64.47-61.98,0,33.3-21.91,61.98-64.47,61.98"/><path class="cls-2" d="M238.3,260.14c9.04,0,15.98-1.29,23.12-3.91,0-26.3-15.69-45.09-43.4-58.63-21.21-10.63-47.31-16.14-71.11-16.14,10.44-31.35,2.83-70.25-7.29-91.6-11.21,22.37-18.21,60.72-7.45,91.92-21.14,1.54-37.91,10.75-45.01,22.9-.54,.93-1.61,2.9-.97,3.24,.51,.27,1.32-.56,1.83-1.02,7.64-7.07,17.76-10.52,27.47-10.52,22.45,0,38.29,18.63,49.49,29.82,24.06,24.06,47.58,33.99,73.31,33.94"/><g><path class="cls-1" d="M331.02,136.64l-11.7,6c-.58,.29-1.17,.73-1.75,.73-.44,0-.88-.29-1.17-1.02-2.63-6.29-6.44-8.63-10.38-8.63h-9.65c-5.7,0-10.53,4.83-10.53,10.53v43.29c0,5.7,4.83,10.53,10.53,10.53h7.17c5.85,0,10.38-4.68,10.38-10.53v-6.87c0-1.02-.44-1.46-1.46-1.46h-13.75c-1.02,0-1.46-.44-1.46-1.46v-12.43c0-1.02,.44-1.46,1.46-1.46h30.57c1.02,0,1.46,.44,1.46,1.46v22.23c0,15.21-10.68,25.89-27.2,25.89h-7.17c-16.67,0-27.2-10.68-27.2-25.89v-43.29c0-15.21,10.53-25.89,27.2-25.89h9.65c12.14,0,18.72,4.97,23.11,11.85,1.32,2.19,2.78,4.53,2.78,5.41,0,.44-.29,.73-.88,1.02Z"/><path class="cls-1" d="M377.53,211.96h-32.91c-1.02,0-1.46-.44-1.46-1.46V121.29c0-1.02,.44-1.46,1.46-1.46h32.91c16.67,0,27.2,10.68,27.2,27.2v1.46c0,5.41-3.51,11.7-7.75,15.8-.44,.29-.58,.73-.58,1.02s.15,.73,.58,1.02c4.24,4.1,7.75,11.12,7.75,16.53v2.19c0,16.53-10.53,26.91-27.2,26.91Zm10.53-66.25c0-5.7-4.83-10.53-10.53-10.53h-16.09c-1.02,0-1.46,.44-1.46,1.46v19.45c0,1.02,.44,1.46,1.46,1.46h16.09c5.7,0,10.53-4.83,10.53-10.53v-1.32Zm0,37.59c0-5.85-4.68-10.38-10.53-10.38h-16.09c-1.02,0-1.46,.44-1.46,1.46v20.77c0,1.02,.44,1.46,1.46,1.46h16.09c5.7,0,10.53-4.53,10.53-10.53v-2.78Z"/><path class="cls-1" d="M433.99,211.96h-13.89c-1.02,0-1.46-.44-1.46-1.46V121.29c0-1.02,.44-1.46,1.46-1.46h13.89c1.02,0,1.46,.44,1.46,1.46v89.21c0,1.02-.44,1.46-1.46,1.46Z"/><path class="cls-1" d="M506.97,135.18h-34.81c-1.02,0-1.46,.44-1.46,1.46v19.45c0,1.02,.44,1.46,1.46,1.46h28.52c1.02,0,1.46,.44,1.46,1.46v12.43c0,1.02-.44,1.46-1.46,1.46h-28.52c-1.02,0-1.46,.44-1.46,1.46v36.12c0,1.02-.44,1.46-1.46,1.46h-13.89c-1.02,0-1.46-.44-1.46-1.46V121.29c0-1.02,.44-1.46,1.46-1.46h51.63c1.02,0,1.46,.44,1.46,1.46v12.43c0,1.02-.44,1.46-1.46,1.46Z"/></g><rect class="cls-1" x="535.84" y="103.49" width=".98" height="122.21"/><g><path class="cls-1" d="M577.6,151.77h-1.54c-5.37,0-8.8-3.38-8.8-8.3v-15.71c0-4.87,3.43-8.3,8.8-8.3h2.44c2.73,0,4.62,.8,5.97,1.94,.85,.7,1.44,1.54,1.94,2.44,.15,.3,.05,.55-.25,.7l-2.63,1.29c-.25,.15-.45,.05-.6-.2-1.04-1.79-2.78-2.73-4.42-2.73h-2.44c-2.69,0-4.87,2.14-4.87,4.87v15.71c0,2.64,2.14,4.87,4.87,4.87h1.54c2.63,0,4.87-2.19,4.87-4.87v-3.63c0-.35-.15-.5-.5-.5h-5.07c-.35,0-.5-.15-.5-.5v-2.44c0-.35,.15-.5,.5-.5h9c.35,0,.5,.15,.5,.5v7.06c0,4.87-3.43,8.3-8.8,8.3Z"/><path class="cls-1" d="M596.05,151.27h-2.93c-.35,0-.5-.15-.5-.5v-30.33c0-.35,.15-.5,.5-.5h2.93c.35,0,.5,.15,.5,.5v30.33c0,.35-.15,.5-.5,.5Z"/><path class="cls-1" d="M611.16,151.77c-5.27,0-8.8-3.48-8.8-8.25v-6.66c0-4.72,3.43-8.25,8.8-8.25s8.8,3.48,8.8,8.25v6.66c0,4.72-3.43,8.25-8.8,8.25Zm4.87-15.17c0-2.54-2.04-4.62-4.87-4.62-3.08,0-4.87,2.19-4.87,4.87v6.91c0,2.54,2.04,4.62,4.87,4.62,3.08,0,4.87-2.19,4.87-4.87v-6.91Z"/><path class="cls-1" d="M634.58,151.27c-1.24,0-3.08-.65-4.52-2.19-.4-.4-.84-.25-.84,.35v1.34c0,.35-.15,.5-.5,.5h-2.44c-.35,0-.5-.15-.5-.5v-30.33c0-.35,.15-.5,.5-.5h2.93c.35,0,.5,.15,.5,.5v10.39c0,.55,.5,.75,.84,.35,1.34-1.49,3.08-2.09,4.52-2.09,4.62,0,8.35,3.38,8.35,8.25v5.62c0,4.87-3.48,8.3-8.85,8.3Zm4.92-13.92c0-2.64-2.24-4.87-4.92-4.87s-4.87,2.19-4.87,4.87v5.62c0,2.64,2.19,4.87,4.87,4.87s4.92-2.19,4.92-4.87v-5.62Z"/><path class="cls-1" d="M664.57,151.27h-2.39c-.35,0-.5-.15-.5-.5v-1.39c0-.55-.5-.8-.9-.4-1.44,1.44-3.18,2.29-4.33,2.29h-1.94c-3.58,0-6.46-2.39-6.46-6.02v-.3c0-3.63,2.88-5.97,6.46-5.97h6.12c.35,0,.5-.15,.5-.5v-1.69c0-2.69-2.19-4.77-4.92-4.77-1.64,0-3.28,.85-4.38,2.73-.15,.25-.4,.35-.7,.2l-2.54-1.34c-.3-.15-.4-.4-.2-.7,.55-.9,1.19-1.74,2.04-2.39,1.39-1.14,3.28-1.89,5.77-1.89,5.37,0,8.85,3.23,8.85,8.15v13.97c0,.35-.15,.5-.5,.5Zm-3.43-8.9c0-.35-.15-.5-.5-.5h-6.12c-1.44,0-2.59,1.14-2.59,2.59v.8c0,1.39,1.14,2.59,2.59,2.59h1.94c2.14,0,4.08-1.94,4.67-3.93v-1.54Z"/><path class="cls-1" d="M674.81,151.27h-2.93c-.35,0-.5-.15-.5-.5v-30.33c0-.35,.15-.5,.5-.5h2.93c.35,0,.5,.15,.5,.5v30.33c0,.35-.15,.5-.5,.5Z"/><path class="cls-1" d="M701.37,151.27h-9.8c-.35,0-.5-.15-.5-.5v-30.33c0-.35,.15-.5,.5-.5h9.8c5.37,0,8.8,3.43,8.8,8.8v.5c0,1.94-1.54,4.62-3.38,5.72-.45,.25-.45,.6-.05,.85,1.69,1.04,3.43,3.53,3.43,5.97v.75c0,5.37-3.43,8.75-8.8,8.75Zm4.92-23.02c0-2.64-2.19-4.87-4.92-4.87h-5.92c-.35,0-.5,.15-.5,.5v9.3c0,.35,.15,.5,.5,.5h5.92c2.69,0,4.92-2.19,4.92-4.92v-.5Zm0,13.67c0-2.64-2.19-4.82-4.92-4.82h-5.92c-.35,0-.5,.15-.5,.5v9.75c0,.35,.15,.5,.5,.5h5.92c2.69,0,4.92-2.14,4.92-4.87v-1.04Z"/><path class="cls-1" d="M717.93,124.37c-1.39,0-2.44-1.09-2.44-2.49s1.09-2.44,2.44-2.44,2.49,1.04,2.49,2.44-1.09,2.49-2.49,2.49Zm1.49,26.9h-2.93c-.35,0-.5-.15-.5-.5v-21.18c0-.35,.15-.5,.5-.5h2.93c.35,0,.5,.15,.5,.5v21.18c0,.35-.15,.5-.5,.5Z"/><path class="cls-1" d="M734.53,151.77c-5.27,0-8.8-3.48-8.8-8.25v-6.66c0-4.72,3.43-8.25,8.8-8.25s8.8,3.48,8.8,8.25v6.66c0,4.72-3.43,8.25-8.8,8.25Zm4.87-15.17c0-2.54-2.04-4.62-4.87-4.62-3.08,0-4.87,2.19-4.87,4.87v6.91c0,2.54,2.04,4.62,4.87,4.62,3.08,0,4.87-2.19,4.87-4.87v-6.91Z"/><path class="cls-1" d="M765.51,151.27h-2.39c-.35,0-.5-.15-.5-.5v-1.39c0-.55-.5-.75-.9-.35-1.49,1.59-3.28,2.24-4.52,2.24-5.37,0-8.8-3.43-8.8-8.3v-5.62c0-4.87,3.63-8.25,8.3-8.25,1.49,0,3.23,.6,4.52,2.14,.35,.45,.84,.25,.84-.35v-10.44c0-.35,.15-.5,.5-.5h2.93c.35,0,.5,.15,.5,.5v30.33c0,.35-.15,.5-.5,.5Zm-3.43-13.92c0-2.64-2.19-4.87-4.87-4.87s-4.87,2.19-4.87,4.87v5.62c0,2.64,2.19,4.87,4.87,4.87s4.87-2.19,4.87-4.87v-5.62Z"/><path class="cls-1" d="M774.52,124.37c-1.39,0-2.44-1.09-2.44-2.49s1.09-2.44,2.44-2.44,2.49,1.04,2.49,2.44-1.09,2.49-2.49,2.49Zm1.49,26.9h-2.93c-.35,0-.5-.15-.5-.5v-21.18c0-.35,.15-.5,.5-.5h2.93c.35,0,.5,.15,.5,.5v21.18c0,.35-.15,.5-.5,.5Z"/><path class="cls-1" d="M791.97,150.97c-.1,.2-.25,.3-.45,.3h-2.39c-.2,0-.35-.1-.45-.3l-8.6-21.18c-.2-.45,0-.7,.45-.7h3.08c.2,0,.35,.1,.45,.3l5.62,14.22c.1,.25,.5,1.49,.55,1.94h.2c.05-.45,.45-1.69,.55-1.94l5.57-14.22c.1-.2,.25-.3,.45-.3h3.08c.45,0,.65,.25,.45,.7l-8.55,21.18Z"/><path class="cls-1" d="M820.46,140.63h-12.68c-.35,0-.5,.15-.5,.5v2.34c0,2.64,2.19,4.87,4.87,4.87,1.69,0,3.38-.99,4.42-2.83,.15-.25,.4-.35,.65-.2l2.64,1.34c.3,.15,.35,.35,.2,.65-.45,.8-.94,1.59-1.64,2.24-1.34,1.34-3.28,2.24-6.26,2.24-5.37,0-8.8-3.38-8.8-8.3v-6.61c0-4.72,3.43-8.25,8.8-8.25s8.8,3.48,8.8,8.25v3.28c0,.35-.15,.5-.5,.5Zm-3.43-4.03c0-2.54-2.04-4.62-4.87-4.62-3.08,0-4.87,2.19-4.87,4.87v.55c0,.25,.25,.3,.5,.3h8.75c.35,0,.5-.15,.5-.5v-.6Z"/><path class="cls-1" d="M836.48,133.22c-.25-.1-.6-.15-.9-.15-2.73,0-4.87,1.84-4.87,4.77v12.93c0,.35-.15,.5-.5,.5h-2.93c-.35,0-.5-.15-.5-.5v-21.18c0-.35,.15-.5,.5-.5h2.44c.35,0,.5,.15,.5,.5v2.04c0,.55,.5,.8,.84,.35,1.29-1.84,2.98-2.88,4.52-2.88h1.09c.35,0,.45,.2,.45,.55v3.13c0,.4-.25,.6-.65,.45Z"/><path class="cls-1" d="M848.46,151.77h-1.49c-2.78,0-4.62-.8-5.92-1.94-.84-.7-1.44-1.59-1.89-2.44-.15-.3-.05-.5,.25-.65l2.39-1.19c.3-.15,.5-.05,.65,.2,.9,1.64,2.69,2.78,4.52,2.78h1.49c2.78,0,4.18-1.59,4.18-3.43,0-2.44-3.23-2.78-6.71-3.48-3.28-.65-6.81-2.09-6.81-6.27,0-4.52,3.38-6.76,7.86-6.76h1.49c2.59,0,4.42,.7,5.72,1.74,.94,.75,1.59,1.64,2.09,2.54,.15,.3,.05,.55-.25,.7l-2.39,1.19c-.25,.15-.5,.05-.65-.2-1-1.64-2.59-2.73-4.52-2.73h-1.49c-2.88,0-4.03,1.39-4.03,3.03,0,2.73,3.23,2.98,6.61,3.68,3.78,.8,6.96,2.04,6.96,6.07s-2.73,7.16-8.05,7.16Z"/><path class="cls-1" d="M863.68,124.37c-1.39,0-2.44-1.09-2.44-2.49s1.09-2.44,2.44-2.44,2.49,1.04,2.49,2.44-1.09,2.49-2.49,2.49Zm1.49,26.9h-2.93c-.35,0-.5-.15-.5-.5v-21.18c0-.35,.15-.5,.5-.5h2.93c.35,0,.5,.15,.5,.5v21.18c0,.35-.15,.5-.5,.5Z"/><path class="cls-1" d="M880.73,151.72c-2.04-.2-3.73-.9-5.02-1.89-1.84-1.49-2.88-3.68-2.88-6.36v-10.49c0-.35-.15-.5-.5-.5h-2.78c-.35,0-.5-.15-.5-.5v-1.34l5.67-5.97c.05-.05,.25-.15,.35-.15h1.19c.35,0,.5,.15,.5,.5v3.58c0,.35,.15,.5,.5,.5h3.53c.35,0,.5,.15,.5,.5v2.39c0,.35-.15,.5-.5,.5h-3.53c-.35,0-.5,.15-.5,.5v10.49c0,2.29,1.59,4.28,4.13,4.77,.25,.05,.4,.2,.4,.5v2.49c0,.35-.2,.55-.55,.5Z"/><path class="cls-1" d="M894.06,162.95c-2.88,0-4.82-.9-6.22-2.19-.7-.7-1.24-1.44-1.69-2.24-.15-.3-.1-.55,.2-.7l2.64-1.29c.3-.15,.5-.05,.65,.2,.99,1.79,2.73,2.78,4.42,2.78,2.69,0,4.92-2.14,4.92-4.87v-5.02c0-.55-.55-.8-.9-.35-1.09,1.34-2.54,1.99-4.03,1.99-5.37,0-8.8-3.43-8.8-8.3v-13.38c0-.35,.15-.5,.5-.5h2.93c.35,0,.5,.15,.5,.5v13.38c0,2.64,2.19,4.87,4.87,4.87,3.03,0,4.92-2.54,4.92-4.87v-13.38c0-.35,.15-.5,.5-.5h2.88c.35,0,.5,.15,.5,.5v24.51c0,5.07-2.93,8.85-8.8,8.85Z"/><path class="cls-1" d="M571.38,210.94h-2.88c-.35,0-.5-.15-.5-.5v-30.33c0-.35,.15-.5,.5-.5h2.88c.35,0,.5,.15,.5,.5v30.33c0,.35-.15,.5-.5,.5Z"/><path class="cls-1" d="M596.09,210.94h-2.93c-.35,0-.5-.15-.5-.5v-13.43c0-2.64-2.24-4.87-4.92-4.87s-4.87,2.19-4.87,4.87v13.43c0,.35-.15,.5-.5,.5h-2.93c-.35,0-.5-.15-.5-.5v-21.18c0-.35,.15-.5,.5-.5h2.44c.35,0,.5,.15,.5,.5v1.29c0,.55,.5,.8,.84,.35,1.34-1.59,2.98-2.14,4.52-2.14,5.37,0,8.85,3.38,8.85,8.25v13.43c0,.35-.15,.5-.5,.5Z"/><path class="cls-1" d="M613.9,182.25c-.1,.25-.25,.35-.5,.35-.45-.05-.7-.05-1.04-.05-2.69,0-4.87,2.14-4.87,4.87v3.13c0,.35,.15,.5,.5,.5h3.58c.35,0,.5,.15,.5,.5v2.39c0,.35-.15,.5-.5,.5h-3.58c-.35,0-.5,.15-.5,.5v15.51c0,.35-.15,.5-.5,.5h-2.88c-.35,0-.5-.15-.5-.5v-15.51c0-.35-.15-.5-.5-.5h-1.29c-.35,0-.5-.15-.5-.5v-2.39c0-.35,.15-.5,.5-.5h1.29c.35,0,.5-.15,.5-.5v-2.64c0-4.87,3.88-8.8,8.75-8.8,.65,0,1.19,.05,1.94,.1,.4,.05,.55,.25,.4,.65l-.8,2.39Z"/><path class="cls-1" d="M623.94,211.44c-5.27,0-8.8-3.48-8.8-8.25v-6.66c0-4.72,3.43-8.25,8.8-8.25s8.8,3.48,8.8,8.25v6.66c0,4.72-3.43,8.25-8.8,8.25Zm4.87-15.17c0-2.54-2.04-4.62-4.87-4.62-3.08,0-4.87,2.19-4.87,4.87v6.91c0,2.54,2.04,4.62,4.87,4.62,3.08,0,4.87-2.19,4.87-4.87v-6.91Z"/><path class="cls-1" d="M648.26,192.89c-.25-.1-.6-.15-.9-.15-2.73,0-4.87,1.84-4.87,4.77v12.93c0,.35-.15,.5-.5,.5h-2.93c-.35,0-.5-.15-.5-.5v-21.18c0-.35,.15-.5,.5-.5h2.44c.35,0,.5,.15,.5,.5v2.04c0,.55,.5,.8,.84,.35,1.29-1.84,2.98-2.88,4.52-2.88h1.09c.35,0,.45,.2,.45,.55v3.13c0,.4-.25,.6-.65,.45Z"/><path class="cls-1" d="M680.98,210.94h-2.93c-.35,0-.5-.15-.5-.5v-13.43c0-2.69-2.29-4.87-4.38-4.87-1.94,0-4.38,2.14-4.38,4.87v13.43c0,.35-.15,.5-.5,.5h-2.93c-.35,0-.5-.15-.5-.5v-13.43c0-2.69-2.29-4.87-4.38-4.87s-4.38,2.14-4.38,4.87v13.43c0,.35-.15,.5-.5,.5h-2.93c-.35,0-.5-.15-.5-.5v-21.18c0-.35,.15-.5,.5-.5h2.44c.35,0,.5,.15,.5,.5v1.29c0,.55,.4,.8,.8,.4,1.39-1.54,3.08-2.19,4.57-2.19,1.79,0,4.03,.75,5.47,2.59,.25,.35,.55,.3,.8,0,1.59-1.79,3.68-2.59,5.92-2.59,4.72,0,8.3,3.38,8.3,8.25v13.43c0,.35-.15,.5-.5,.5Z"/><path class="cls-1" d="M703.11,210.94h-2.39c-.35,0-.5-.15-.5-.5v-1.39c0-.55-.5-.8-.9-.4-1.44,1.44-3.18,2.29-4.33,2.29h-1.94c-3.58,0-6.46-2.39-6.46-6.02v-.3c0-3.63,2.88-5.97,6.46-5.97h6.12c.35,0,.5-.15,.5-.5v-1.69c0-2.69-2.19-4.77-4.92-4.77-1.64,0-3.28,.85-4.38,2.73-.15,.25-.4,.35-.7,.2l-2.54-1.34c-.3-.15-.4-.4-.2-.7,.55-.9,1.19-1.74,2.04-2.39,1.39-1.14,3.28-1.89,5.77-1.89,5.37,0,8.85,3.23,8.85,8.15v13.97c0,.35-.15,.5-.5,.5Zm-3.43-8.9c0-.35-.15-.5-.5-.5h-6.12c-1.44,0-2.59,1.14-2.59,2.59v.8c0,1.39,1.14,2.59,2.59,2.59h1.94c2.14,0,4.08-1.94,4.67-3.93v-1.54Z"/><path class="cls-1" d="M718.42,211.39c-2.04-.2-3.73-.9-5.02-1.89-1.84-1.49-2.88-3.68-2.88-6.36v-10.49c0-.35-.15-.5-.5-.5h-2.78c-.35,0-.5-.15-.5-.5v-1.34l5.67-5.97c.05-.05,.25-.15,.35-.15h1.19c.35,0,.5,.15,.5,.5v3.58c0,.35,.15,.5,.5,.5h3.53c.35,0,.5,.15,.5,.5v2.39c0,.35-.15,.5-.5,.5h-3.53c-.35,0-.5,.15-.5,.5v10.49c0,2.29,1.59,4.28,4.13,4.77,.25,.05,.4,.2,.4,.5v2.49c0,.35-.2,.55-.55,.5Z"/><path class="cls-1" d="M725.14,184.04c-1.39,0-2.44-1.09-2.44-2.49s1.09-2.44,2.44-2.44,2.49,1.04,2.49,2.44-1.09,2.49-2.49,2.49Zm1.49,26.9h-2.93c-.35,0-.5-.15-.5-.5v-21.18c0-.35,.15-.5,.5-.5h2.93c.35,0,.5,.15,.5,.5v21.18c0,.35-.15,.5-.5,.5Z"/><path class="cls-1" d="M741.74,211.44c-5.27,0-8.8-3.48-8.8-8.25v-6.66c0-4.72,3.43-8.25,8.8-8.25s8.8,3.48,8.8,8.25v6.66c0,4.72-3.43,8.25-8.8,8.25Zm4.87-15.17c0-2.54-2.04-4.62-4.87-4.62-3.08,0-4.87,2.19-4.87,4.87v6.91c0,2.54,2.04,4.62,4.87,4.62,3.08,0,4.87-2.19,4.87-4.87v-6.91Z"/><path class="cls-1" d="M773.52,210.94h-2.93c-.35,0-.5-.15-.5-.5v-13.43c0-2.64-2.24-4.87-4.92-4.87s-4.87,2.19-4.87,4.87v13.43c0,.35-.15,.5-.5,.5h-2.93c-.35,0-.5-.15-.5-.5v-21.18c0-.35,.15-.5,.5-.5h2.44c.35,0,.5,.15,.5,.5v1.29c0,.55,.5,.8,.84,.35,1.34-1.59,2.98-2.14,4.52-2.14,5.37,0,8.85,3.38,8.85,8.25v13.43c0,.35-.15,.5-.5,.5Z"/><path class="cls-1" d="M806.64,183.05h-12.73c-.35,0-.5,.15-.5,.5v9.3c0,.35,.15,.5,.5,.5h10.44c.35,0,.5,.15,.5,.5v2.44c0,.35-.15,.5-.5,.5h-10.44c-.35,0-.5,.15-.5,.5v13.18c0,.35-.15,.5-.5,.5h-2.88c-.35,0-.5-.15-.5-.5v-30.33c0-.35,.15-.5,.5-.5h16.61c.35,0,.5,.15,.5,.5v2.44c0,.35-.15,.5-.5,.5Z"/><path class="cls-1" d="M824.29,210.94h-2.39c-.35,0-.5-.15-.5-.5v-1.39c0-.55-.5-.8-.9-.4-1.44,1.44-3.18,2.29-4.33,2.29h-1.94c-3.58,0-6.46-2.39-6.46-6.02v-.3c0-3.63,2.88-5.97,6.46-5.97h6.12c.35,0,.5-.15,.5-.5v-1.69c0-2.69-2.19-4.77-4.92-4.77-1.64,0-3.28,.85-4.38,2.73-.15,.25-.4,.35-.7,.2l-2.54-1.34c-.3-.15-.4-.4-.2-.7,.55-.9,1.19-1.74,2.04-2.39,1.39-1.14,3.28-1.89,5.77-1.89,5.37,0,8.85,3.23,8.85,8.15v13.97c0,.35-.15,.5-.5,.5Zm-3.43-8.9c0-.35-.15-.5-.5-.5h-6.12c-1.44,0-2.59,1.14-2.59,2.59v.8c0,1.39,1.14,2.59,2.59,2.59h1.94c2.14,0,4.08-1.94,4.67-3.93v-1.54Z"/><path class="cls-1" d="M845.18,209.45c-1.34,1.19-3.23,1.99-6.02,1.99-5.37,0-8.8-3.58-8.8-8.3v-6.61c0-4.72,3.43-8.25,8.8-8.25,2.78,0,4.67,.8,6.02,1.94,.8,.7,1.39,1.49,1.89,2.39,.15,.3,.05,.55-.25,.7l-2.64,1.34c-.25,.15-.45,.05-.6-.2-1.04-1.74-2.73-2.78-4.42-2.78-3.08,0-4.87,2.19-4.87,4.87v6.61c0,2.69,1.79,4.87,4.87,4.87,1.69,0,3.38-.99,4.42-2.83,.15-.25,.4-.35,.65-.2l2.64,1.34c.3,.15,.35,.35,.2,.65-.5,.9-1.09,1.74-1.89,2.49Z"/><path class="cls-1" d="M853.83,184.04c-1.39,0-2.44-1.09-2.44-2.49s1.09-2.44,2.44-2.44,2.49,1.04,2.49,2.44-1.09,2.49-2.49,2.49Zm1.49,26.9h-2.93c-.35,0-.5-.15-.5-.5v-21.18c0-.35,.15-.5,.5-.5h2.93c.35,0,.5,.15,.5,.5v21.18c0,.35-.15,.5-.5,.5Z"/><path class="cls-1" d="M865.82,210.94h-2.93c-.35,0-.5-.15-.5-.5v-30.33c0-.35,.15-.5,.5-.5h2.93c.35,0,.5,.15,.5,.5v30.33c0,.35-.15,.5-.5,.5Z"/><path class="cls-1" d="M874.82,184.04c-1.39,0-2.44-1.09-2.44-2.49s1.09-2.44,2.44-2.44,2.49,1.04,2.49,2.44-1.09,2.49-2.49,2.49Zm1.49,26.9h-2.93c-.35,0-.5-.15-.5-.5v-21.18c0-.35,.15-.5,.5-.5h2.93c.35,0,.5,.15,.5,.5v21.18c0,.35-.15,.5-.5,.5Z"/><path class="cls-1" d="M891.87,211.39c-2.04-.2-3.73-.9-5.02-1.89-1.84-1.49-2.88-3.68-2.88-6.36v-10.49c0-.35-.15-.5-.5-.5h-2.78c-.35,0-.5-.15-.5-.5v-1.34l5.67-5.97c.05-.05,.25-.15,.35-.15h1.19c.35,0,.5,.15,.5,.5v3.58c0,.35,.15,.5,.5,.5h3.53c.35,0,.5,.15,.5,.5v2.39c0,.35-.15,.5-.5,.5h-3.53c-.35,0-.5,.15-.5,.5v10.49c0,2.29,1.59,4.28,4.13,4.77,.25,.05,.4,.2,.4,.5v2.49c0,.35-.2,.55-.55,.5Z"/><path class="cls-1" d="M905.2,222.63c-2.88,0-4.82-.9-6.22-2.19-.7-.7-1.24-1.44-1.69-2.24-.15-.3-.1-.55,.2-.7l2.64-1.29c.3-.15,.5-.05,.65,.2,.99,1.79,2.73,2.78,4.42,2.78,2.69,0,4.92-2.14,4.92-4.87v-5.02c0-.55-.55-.8-.9-.35-1.09,1.34-2.54,1.99-4.03,1.99-5.37,0-8.8-3.43-8.8-8.3v-13.38c0-.35,.15-.5,.5-.5h2.93c.35,0,.5,.15,.5,.5v13.38c0,2.64,2.19,4.87,4.87,4.87,3.03,0,4.92-2.54,4.92-4.87v-13.38c0-.35,.15-.5,.5-.5h2.88c.35,0,.5,.15,.5,.5v24.51c0,5.07-2.93,8.85-8.8,8.85Z"/></g></svg>